<svg xmlns="http://www.w3.org/2000/svg" width="1200" height="940" viewBox="0 0 1200 940" font-family="-apple-system, Helvetica, Arial, sans-serif">
  <rect width="1200" height="940" fill="#fbfdfb"/>
  <text x="600" y="42" text-anchor="middle" font-size="26" font-weight="700" fill="#1b3a2b">Crow architecture — where we are now (Milestones A→E2)</text>
  <text x="600" y="68" text-anchor="middle" font-size="14" fill="#4a5b52">crowd is the headless engine. All UIs are clients over one surface. The Swift app still self-hosts an engine (transitional), coexisting via the shared tmux server.</text>

  <!-- ===================== CLIENTS ROW ===================== -->
  <text x="60" y="112" font-size="13" font-weight="700" fill="#1565c0" letter-spacing="1">CLIENTS  (talk to crowd — no engine of their own)</text>

  <!-- Web UI -->
  <rect x="60" y="126" width="200" height="70" rx="10" fill="#e3f2fd" stroke="#1565c0" stroke-width="2"/>
  <text x="160" y="158" text-anchor="middle" font-size="15" font-weight="700" fill="#0d3a6b">Web UI (browser)</text>
  <text x="160" y="178" text-anchor="middle" font-size="12" fill="#3a5a7a">/rpc · /terminal · push</text>

  <!-- crow CLI -->
  <rect x="285" y="126" width="180" height="70" rx="10" fill="#e3f2fd" stroke="#1565c0" stroke-width="2"/>
  <text x="375" y="158" text-anchor="middle" font-size="15" font-weight="700" fill="#0d3a6b">crow CLI</text>
  <text x="375" y="178" text-anchor="middle" font-size="12" fill="#3a5a7a">Unix socket</text>

  <!-- Tauri shell -->
  <rect x="490" y="126" width="230" height="70" rx="10" fill="#f3e9f8" stroke="#7b1fa2" stroke-width="2" stroke-dasharray="7 5"/>
  <text x="605" y="152" text-anchor="middle" font-size="15" font-weight="700" fill="#5a1370">Tauri shell</text>
  <text x="605" y="172" text-anchor="middle" font-size="12" fill="#6a4080">future — wraps this same web UI</text>
  <text x="605" y="188" text-anchor="middle" font-size="11" fill="#8a6a98">(new, parallel; no Swift rewrite)</text>

  <!-- ===================== crowd ENGINE ===================== -->
  <rect x="60" y="250" width="660" height="470" rx="16" fill="#e8f5e9" stroke="#2e7d32" stroke-width="3"/>
  <text x="84" y="284" font-size="20" font-weight="700" fill="#1b5e20">crowd  —  headless engine</text>
  <text x="84" y="305" font-size="12.5" fill="#43705a">the authority when standalone · runs on Linux/macOS · links no AppKit</text>

  <!-- surface strip -->
  <rect x="84" y="322" width="612" height="52" rx="9" fill="#ffffff" stroke="#66bb6a" stroke-width="1.5"/>
  <text x="96" y="342" font-size="12" font-weight="700" fill="#2e7d32">SURFACE</text>
  <text x="96" y="362" font-size="12.5" fill="#2f4f3c">/rpc (WS)  ·  /terminal (WS)  ·  Unix socket  ·  HTTP  ·  EventHub → live push</text>

  <!-- command router -->
  <rect x="84" y="388" width="612" height="40" rx="9" fill="#ffffff" stroke="#66bb6a" stroke-width="1.5"/>
  <text x="390" y="413" text-anchor="middle" font-size="13.5" font-weight="700" fill="#2e7d32">CommandRouter  (shared JSON-RPC handlers)</text>

  <!-- engine capability boxes -->
  <text x="96" y="456" font-size="12" font-weight="700" fill="#2e7d32">ENGINE  (CrowEngine)</text>
  <g font-size="12" fill="#173a26" font-weight="600">
    <rect x="84" y="466" width="180" height="50" rx="8" fill="#c8e6c9" stroke="#43a047"/>
    <text x="174" y="488" text-anchor="middle">SessionService</text>
    <text x="174" y="505" text-anchor="middle" font-size="10.5" font-weight="400" fill="#3a5c47">spawn: manager · review · work</text>

    <rect x="274" y="466" width="150" height="50" rx="8" fill="#c8e6c9" stroke="#43a047"/>
    <text x="349" y="488" text-anchor="middle">IssueTracker</text>
    <text x="349" y="505" text-anchor="middle" font-size="10.5" font-weight="400" fill="#3a5c47">tickets · reviews</text>

    <rect x="434" y="466" width="150" height="50" rx="8" fill="#c8e6c9" stroke="#43a047"/>
    <text x="509" y="488" text-anchor="middle">AllowListService</text>
    <text x="509" y="505" text-anchor="middle" font-size="10.5" font-weight="400" fill="#3a5c47">allowlist</text>

    <rect x="594" y="466" width="102" height="50" rx="8" fill="#c8e6c9" stroke="#43a047"/>
    <text x="645" y="488" text-anchor="middle">Agent-</text>
    <text x="645" y="504" text-anchor="middle">Registry</text>
  </g>

  <!-- state row -->
  <text x="96" y="556" font-size="12" font-weight="700" fill="#2e7d32">STATE  (single source of truth when standalone)</text>
  <rect x="84" y="566" width="300" height="46" rx="8" fill="#ffffff" stroke="#66bb6a" stroke-width="1.5"/>
  <text x="234" y="594" text-anchor="middle" font-size="13" font-weight="600" fill="#2f4f3c">AppState  (observable)</text>
  <rect x="396" y="566" width="300" height="46" rx="8" fill="#ffffff" stroke="#66bb6a" stroke-width="1.5"/>
  <text x="546" y="594" text-anchor="middle" font-size="13" font-weight="600" fill="#2f4f3c">JSONStore → store.json</text>

  <!-- tmux drivers inside crowd -->
  <rect x="84" y="636" width="612" height="60" rx="9" fill="#eef5f0" stroke="#66bb6a" stroke-width="1.5"/>
  <text x="96" y="658" font-size="12" font-weight="700" fill="#2e7d32">TERMINALS</text>
  <text x="96" y="678" font-size="12.5" fill="#2f4f3c">TmuxBackend.shared  (spawn windows)   +   TerminalCockpit  (web /terminal attach)</text>
  <text x="96" y="692" font-size="11" fill="#5a7566">both point at the same tmux server ↓</text>

  <!-- ===================== SWIFT APP (transitional) ===================== -->
  <rect x="770" y="126" width="370" height="594" rx="16" fill="#fff8e1" stroke="#f9a825" stroke-width="3" stroke-dasharray="9 6"/>
  <text x="955" y="156" text-anchor="middle" font-size="19" font-weight="700" fill="#8a5a00">macOS Swift app</text>
  <text x="955" y="177" text-anchor="middle" font-size="12.5" fill="#9a7a3a">transitional — still self-hosts its own engine</text>
  <text x="955" y="193" text-anchor="middle" font-size="12.5" fill="#9a7a3a">authority when it's running; retired (deleted), not rewritten</text>

  <rect x="796" y="212" width="318" height="44" rx="8" fill="#fffdf5" stroke="#f4b942"/>
  <text x="955" y="240" text-anchor="middle" font-size="13" font-weight="600" fill="#6b4a00">Native UI (SwiftUI) + HostBridge</text>
  <text x="955" y="255" text-anchor="middle" font-size="0" fill="#6b4a00"> </text>

  <rect x="796" y="272" width="318" height="150" rx="8" fill="#fffdf5" stroke="#f4b942"/>
  <text x="955" y="296" text-anchor="middle" font-size="12" font-weight="700" fill="#8a5a00">its OWN engine (to be removed in F)</text>
  <g font-size="12" fill="#6b4a00" font-weight="600">
    <rect x="812" y="308" width="140" height="34" rx="6" fill="#fdf0cf" stroke="#e0a92a"/>
    <text x="882" y="330" text-anchor="middle">SessionService</text>
    <rect x="962" y="308" width="138" height="34" rx="6" fill="#fdf0cf" stroke="#e0a92a"/>
    <text x="1031" y="330" text-anchor="middle">JSONStore</text>
    <rect x="812" y="350" width="140" height="34" rx="6" fill="#fdf0cf" stroke="#e0a92a"/>
    <text x="882" y="372" text-anchor="middle">SocketServer</text>
    <rect x="962" y="350" width="138" height="34" rx="6" fill="#fdf0cf" stroke="#e0a92a"/>
    <text x="1031" y="372" text-anchor="middle">TmuxBackend</text>
  </g>
  <text x="955" y="408" text-anchor="middle" font-size="11.5" fill="#9a7a3a">Milestone F deletes this whole column →</text>

  <!-- ===================== SHARED TMUX ===================== -->
  <rect x="60" y="800" width="1080" height="86" rx="14" fill="#eceff1" stroke="#546e7a" stroke-width="3"/>
  <text x="600" y="833" text-anchor="middle" font-size="18" font-weight="700" fill="#324049">Shared tmux server</text>
  <text x="600" y="857" text-anchor="middle" font-size="13.5" fill="#4a5b64">session "crow-cockpit"  ·  $TMPDIR/crow-tmux.sock  —  one physical server; crowd &amp; the Swift app both attach here</text>
  <text x="600" y="875" text-anchor="middle" font-size="12" fill="#6a7b84">this shared server is what lets a web/desktop client show the Swift app's live terminals — and lets both run side by side</text>

  <!-- ===================== ARROWS ===================== -->
  <defs>
    <marker id="ar" markerWidth="10" markerHeight="10" refX="8" refY="3" orient="auto"><path d="M0,0 L8,3 L0,6 Z" fill="#1565c0"/></marker>
    <marker id="arg" markerWidth="10" markerHeight="10" refX="8" refY="3" orient="auto"><path d="M0,0 L8,3 L0,6 Z" fill="#546e7a"/></marker>
    <marker id="ara" markerWidth="10" markerHeight="10" refX="8" refY="3" orient="auto"><path d="M0,0 L8,3 L0,6 Z" fill="#e0912a"/></marker>
  </defs>

  <!-- clients → crowd surface -->
  <line x1="160" y1="196" x2="180" y2="322" stroke="#1565c0" stroke-width="2" marker-end="url(#ar)"/>
  <line x1="375" y1="196" x2="330" y2="322" stroke="#1565c0" stroke-width="2" marker-end="url(#ar)"/>
  <line x1="605" y1="196" x2="500" y2="322" stroke="#7b1fa2" stroke-width="2" stroke-dasharray="7 5" marker-end="url(#ar)"/>

  <!-- crowd terminals → tmux -->
  <line x1="390" y1="696" x2="390" y2="800" stroke="#546e7a" stroke-width="2.5" marker-end="url(#arg)"/>

  <!-- swift app → tmux (shares) -->
  <line x1="955" y1="720" x2="955" y2="800" stroke="#e0912a" stroke-width="2.5" stroke-dasharray="8 5" marker-end="url(#ara)"/>

  <!-- swift app <-> crowd (forward when app is authority) -->
  <line x1="770" y1="430" x2="720" y2="430" stroke="#e0912a" stroke-width="2.5" stroke-dasharray="8 5" marker-end="url(#ara)"/>
  <text x="745" y="422" text-anchor="middle" font-size="11" fill="#9a6a1a">forward /</text>
  <text x="745" y="448" text-anchor="middle" font-size="11" fill="#9a6a1a">share store</text>

  <!-- ===================== LEGEND ===================== -->
  <rect x="60" y="900" width="16" height="16" rx="3" fill="#e8f5e9" stroke="#2e7d32" stroke-width="2"/>
  <text x="82" y="913" font-size="12.5" fill="#33413a">headless engine — done (A→E2)</text>
  <rect x="320" y="900" width="16" height="16" rx="3" fill="#e3f2fd" stroke="#1565c0" stroke-width="2"/>
  <text x="342" y="913" font-size="12.5" fill="#33413a">client — done</text>
  <rect x="470" y="900" width="16" height="16" rx="3" fill="#f3e9f8" stroke="#7b1fa2" stroke-width="2" stroke-dasharray="4 3"/>
  <text x="492" y="913" font-size="12.5" fill="#33413a">future (new work)</text>
  <rect x="640" y="900" width="16" height="16" rx="3" fill="#fff8e1" stroke="#f9a825" stroke-width="2" stroke-dasharray="4 3"/>
  <text x="662" y="913" font-size="12.5" fill="#33413a">transitional — retire in F, not rewrite</text>
  <rect x="960" y="900" width="16" height="16" rx="3" fill="#eceff1" stroke="#546e7a" stroke-width="2"/>
  <text x="982" y="913" font-size="12.5" fill="#33413a">shared infrastructure</text>
</svg>
